<?xml version="1.0" encoding="utf-8"?>
<svg version="1.1" xmlns:xlink="http://www.w3.org/1999/xlink" width="24px" height="25px" xmlns="http://www.w3.org/2000/svg">
  <g transform="matrix(1 0 0 1 -69 -496 )">
    <path d="M 15.6407599309154 22.4748883928571  C 17.3909038572251 22.1028645833333  19.1917098445596 21.4750744047619  21.0431778929188 20.5915178571429  C 21.1813471502591 20.5357142857143  21.301093839954 20.5217633928571  21.4024179620035 20.5496651785714  C 21.503742084053 20.5775669642857  21.5544041450777 20.658947172619  21.5544041450777 20.7938058035714  C 21.5544041450777 20.9286644345238  21.4853195164076 21.0844494047619  21.3471502590674 21.2611607142857  C 21.2274035693725 21.4099702380952  21.0247553252735 21.6122581845238  20.7392055267703 21.8680245535714  C 20.4536557282671 22.123790922619  20.013816925734 22.4400111607143  19.419689119171 22.8166852678571  C 18.8255613126079 23.193359375  18.1761658031088 23.5374813988095  17.4715025906736 23.8490513392857  C 16.7668393782383 24.1606212797619  15.9009786989062 24.4303385416667  14.873920552677 24.658203125  C 13.8468624064479 24.8860677083333  12.7898675877951 25  11.7029360967185 25  C 10.6067933218192 25  9.51065054691998 24.8558407738095  8.41450777202073 24.5675223214286  C 7.31836499712148 24.2792038690476  6.35578583765112 23.9234561011905  5.52677029360967 23.5002790178571  C 4.69775474956822 23.0771019345238  3.90328151986183 22.5934709821429  3.1433506044905 22.0493861607143  C 2.38341968911917 21.5053013392857  1.77317213586644 21.0170200892857  1.3126079447323 20.5845424107143  C 0.852043753598158 20.1520647321429  0.465169833045481 19.7451636904762  0.151986183074266 19.3638392857143  C 0.0782959124928038 19.2801339285714  0.0322394933793898 19.2034040178571  0.0138169257340242 19.1336495535714  C -0.00460564191134133 19.0638950892857  0 19.0080915178571  0.0276338514680484 18.9662388392857  C 0.0552677029360967 18.9243861607143  0.0921128382268279 18.891834077381  0.138169257340242 18.8685825892857  C 0.184225676453656 18.8453311011905  0.237190558434082 18.8360305059524  0.29706390328152 18.8406808035714  C 0.356937248128958 18.8453311011905  0.409902130109384 18.8662574404762  0.455958549222798 18.9034598214286  C 2.22452504317789 19.9916294642857  3.60621761658031 20.7635788690476  4.60103626943005 21.2193080357143  C 8.18422567645366 22.856212797619  11.8641335636154 23.2747395833333  15.6407599309154 22.4748883928571  Z M 22.853195164076 18.65234375  C 23.4242947610823 18.7081473214286  23.7743235463443 18.8197544642857  23.9032815198618 18.9871651785714  C 24.0046056419113 19.135974702381  24.0161197466897 19.4591703869048  23.9378238341969 19.9567522321429  C 23.8595279217041 20.454334077381  23.7282671272309 20.9309895833333  23.5440414507772 21.38671875  C 23.230857800806 22.1586681547619  22.839378238342 22.7353050595238  22.3696027633851 23.1166294642857  C 22.2130109383995 23.246837797619  22.0932642487047 23.2886904761905  22.0103626943005 23.2421875  C 21.9274611398964 23.1956845238095  21.9274611398964 23.0840773809524  22.0103626943005 22.9073660714286  C 22.2037996545769 22.4888392857143  22.4087507196316 21.923828125  22.6252158894646 21.2123325892857  C 22.8416810592976 20.5008370535714  22.8716177317214 20.0427827380952  22.7150259067358 19.8381696428571  C 22.6689694876223 19.7730654761905  22.5975820379965 19.7195870535714  22.5008635578584 19.677734375  C 22.4041450777202 19.6358816964286  22.279792746114 19.6079799107143  22.1278065630397 19.5940290178571  C 21.9758203799655 19.580078125  21.8399539435809 19.5684523809524  21.720207253886 19.5591517857143  C 21.6004605641911 19.5498511904762  21.4392630972942 19.5498511904762  21.2366148531952 19.5591517857143  C 21.0339666090961 19.5684523809524  20.8888888888889 19.5777529761905  20.8013816925734 19.5870535714286  C 20.7138744962579 19.5963541666667  20.5710995970063 19.6103050595238  20.3730569948187 19.62890625  C 20.175014392631 19.6475074404762  20.0713874496258 19.6568080357143  20.0621761658031 19.6568080357143  C 20.006908462867 19.6661086309524  19.9470351180196 19.673084077381  19.8825561312608 19.677734375  C 19.818077144502 19.682384672619  19.7674150834773 19.6870349702381  19.7305699481865 19.6916852678571  C 19.6937248128958 19.6963355654762  19.6545768566494 19.7009858630952  19.6131260794473 19.7056361607143  C 19.5716753022453 19.7102864583333  19.5394358088659 19.7126116071429  19.5164075993092 19.7126116071429  L 19.440414507772 19.7126116071429  L 19.3782383419689 19.7126116071429  C 19.3782383419689 19.7126116071429  19.3644214162349 19.7102864583333  19.3367875647668 19.7056361607143  C 19.3091537132988 19.7009858630952  19.2999424294761 19.6940104166667  19.3091537132988 19.6847098214286  L 19.2884283246978 19.6428571428571  C 19.2331606217617 19.4940476190476  19.4496257915947 19.3080357142857  19.9378238341969 19.0848214285714  C 20.4260218767991 18.8616071428571  20.9004029936672 18.7220982142857  21.3609671848014 18.6662946428571  C 21.7846862406448 18.6011904761905  22.2820955670697 18.5965401785714  22.853195164076 18.65234375  Z M 18.4594127806563 4.58984375  L 18.4594127806563 12.8069196428571  C 18.4594127806563 13.0952380952381  18.5215889464594 13.3928571428571  18.6459412780656 13.6997767857143  C 18.7702936096718 14.0066964285714  18.9176741508348 14.2764136904762  19.0880829015544 14.5089285714286  C 19.258491652274 14.741443452381  19.4312032239493 14.9553571428571  19.6062176165803 15.1506696428571  C 19.7812320092113 15.3459821428571  19.9332181922856 15.4947916666667  20.0621761658031 15.5970982142857  L 20.2417962003454 15.7505580357143  L 17.1053540587219 18.8755580357143  C 16.7369027058146 18.5314360119048  16.3730569948187 18.1803385416667  16.013816925734 17.822265625  C 15.6545768566494 17.4641927083333  15.3874496257916 17.192150297619  15.2124352331606 17.0061383928571  L 14.9499136442142 16.7271205357143  C 14.8485895221647 16.6248139880952  14.7334484743811 16.4713541666667  14.6044905008636 16.2667410714286  C 14.2544617156016 16.8154761904762  13.8054116292458 17.2921316964286  13.2573402417962 17.6967075892857  C 12.7092688543466 18.1012834821429  12.1220495106505 18.3965773809524  11.4956822107081 18.5825892857143  C 10.8693149107657 18.7686011904762  10.2245250431779 18.8755580357143  9.56131260794473 18.9034598214286  C 8.89810017271157 18.9313616071429  8.26482440990213 18.8337053571429  7.66148531951641 18.6104910714286  C 7.05814622913069 18.3872767857143  6.51698330454807 18.0826822916667  6.03799654576857 17.6967075892857  C 5.55900978698906 17.3107328869048  5.17674150834773 16.7852492559524  4.89119170984456 16.1202566964286  C 4.60564191134139 15.4552641369048  4.46286701208981 14.6995907738095  4.46286701208981 13.8532366071429  C 4.46286701208981 13.0719866071429  4.59182498560737 12.3558407738095  4.84974093264249 11.7047991071429  C 5.10765687967761 11.0537574404762  5.43926309729419 10.5119977678571  5.84455958549223 10.0795200892857  C 6.24985607369027 9.64704241071428  6.74035693724813 9.26106770833333  7.3160621761658 8.92159598214286  C 7.89176741508348 8.58212425595238  8.4559585492228 8.31705729166667  9.00863557858376 8.12639508928572  C 9.56131260794473 7.93573288690476  10.1600460564191 7.77529761904762  10.8048359240069 7.64508928571428  C 11.4496257915947 7.51488095238095  12 7.42885044642857  12.4559585492228 7.38699776785714  C 12.9119170984456 7.34514508928572  13.3701784686241 7.3149181547619  13.8307426597582 7.29631696428572  L 13.8307426597582 5.52455357142857  C 13.8307426597582 4.92001488095238  13.73402417962 4.46893601190476  13.5405872193437 4.17131696428572  C 13.2274035693725 3.67838541666667  12.6701208981002 3.43191964285714  11.8687392055268 3.43191964285714  C 11.8134715025907 3.43191964285714  11.7374784110535 3.43656994047619  11.6407599309154 3.44587053571428  C 11.5440414507772 3.45517113095238  11.3575129533679 3.51097470238095  11.0811744386874 3.61328125  C 10.8048359240069 3.71558779761905  10.5469199769718 3.85277157738095  10.307426597582 4.02483258928572  C 10.0679332181923 4.19689360119047  9.81001727115717 4.47358630952381  9.53367875647668 4.85491071428572  C 9.2573402417962 5.23623511904762  9.03626943005181 5.68266369047619  8.87046632124352 6.19419642857143  L 4.80829015544041 5.81752232142857  C 4.80829015544041 5.25948660714286  4.90961427748993 4.70610119047619  5.11226252158895 4.15736607142857  C 5.31491076568797 3.60863095238095  5.62348877374784 3.08314732142857  6.03799654576857 2.58091517857143  C 6.45250431778929 2.07868303571428  6.94991364421416 1.63690476190476  7.53022452504318 1.25558035714286  C 8.11053540587219 0.874255952380951  8.80829015544041 0.569661458333331  9.62348877374784 0.341796875  C 10.4386873920553 0.113932291666669  11.3160621761658 0  12.2556131260794 0  C 13.1767415083477 0  14.0103626943005 0.116257440476192  14.7564766839378 0.348772321428573  C 15.5025906735751 0.581287202380951  16.0990213010938 0.867280505952378  16.545768566494 1.20675223214286  C 16.9925158318941 1.54622395833333  17.3655728267127 1.93219866071428  17.6649395509499 2.36467633928572  C 17.9643062751871 2.79715401785714  18.1715601611975 3.19707961309524  18.286701208981 3.564453125  C 18.4018422567645 3.93182663690476  18.4594127806563 4.27362351190476  18.4594127806563 4.58984375  Z M 9.62348877374784 11.5025111607143  C 9.32412204951065 11.9442894345238  9.17443868739205 12.4767485119048  9.17443868739205 13.0998883928571  C 9.17443868739205 13.8997395833333  9.49683362118595 14.5182291666667  10.1416234887737 14.9553571428571  C 10.7495682210708 15.3645833333333  11.3897524467473 15.4668898809524  12.0621761658031 15.2622767857143  C 12.8359240069085 15.0297619047619  13.3609671848014 14.457775297619  13.6373056994819 13.5463169642857  C 13.7662636729994 13.1277901785714  13.8307426597582 12.6581101190476  13.8307426597582 12.1372767857143  L 13.8307426597582 9.87723214285714  C 13.2872769142199 9.89583333333333  12.776050662061 9.9516369047619  12.2970639032815 10.0446428571429  C 11.818077144502 10.1376488095238  11.3275762809442 10.2934337797619  10.8255613126079 10.5119977678571  C 10.3235463442717 10.7305617559524  9.92285549798503 11.0607328869048  9.62348877374784 11.5025111607143  Z " fill-rule="nonzero" fill="#000000" stroke="none" transform="matrix(1 0 0 1 69 496 )" />
  </g>
</svg>