<?xml version="1.0" encoding="utf-8"?>
<svg version="1.1" xmlns:xlink="http://www.w3.org/1999/xlink" width="30px" height="33px" xmlns="http://www.w3.org/2000/svg">
  <g transform="matrix(1 0 0 1 -63 -280 )">
    <path d="M 20.1923076923077 25.0998883928571  C 20.1923076923077 25.2594866071429  20.1382211538462 25.39453125  20.0300480769231 25.5050223214286  L 19.2007211538462 26.3521205357143  C 19.0925480769231 26.4626116071429  18.9603365384615 26.5178571428571  18.8040865384615 26.5178571428571  C 18.6478365384615 26.5178571428571  18.5096153846154 26.4626116071429  18.3894230769231 26.3521205357143  L 15 22.8716517857143  L 11.6105769230769 26.3521205357143  C 11.4903846153846 26.4626116071429  11.3521634615385 26.5178571428571  11.1959134615385 26.5178571428571  C 11.0396634615385 26.5178571428571  10.9074519230769 26.4626116071429  10.7992788461538 26.3521205357143  L 9.96995192307692 25.5050223214286  C 9.86177884615385 25.39453125  9.80769230769231 25.2594866071429  9.80769230769231 25.0998883928571  C 9.80769230769231 24.9402901785714  9.86177884615385 24.7991071428571  9.96995192307692 24.6763392857143  L 13.3774038461538 21.2142857142857  L 9.96995192307692 17.7522321428571  C 9.86177884615385 17.6294642857143  9.80769230769231 17.48828125  9.80769230769231 17.3286830357143  C 9.80769230769231 17.1690848214286  9.86177884615385 17.0340401785714  9.96995192307692 16.9235491071429  L 10.7992788461538 16.0764508928571  C 10.9074519230769 15.9659598214286  11.0396634615385 15.9107142857143  11.1959134615385 15.9107142857143  C 11.3521634615385 15.9107142857143  11.4903846153846 15.9659598214286  11.6105769230769 16.0764508928571  L 15 19.5385044642857  L 18.3894230769231 16.0764508928571  C 18.5096153846154 15.9659598214286  18.6478365384615 15.9107142857143  18.8040865384615 15.9107142857143  C 18.9603365384615 15.9107142857143  19.0925480769231 15.9659598214286  19.2007211538462 16.0764508928571  L 20.0300480769231 16.9235491071429  C 20.1382211538462 17.0340401785714  20.1923076923077 17.1690848214286  20.1923076923077 17.3286830357143  C 20.1923076923077 17.48828125  20.1382211538462 17.6294642857143  20.0300480769231 17.7522321428571  L 16.640625 21.2142857142857  L 20.0300480769231 24.6763392857143  C 20.1382211538462 24.7991071428571  20.1923076923077 24.9402901785714  20.1923076923077 25.0998883928571  Z M 2.30769230769231 12  L 2.30769230769231 30  L 27.6923076923077 30  L 27.6923076923077 12  L 2.30769230769231 12  Z M 9.06850961538462 8.67354910714286  C 9.17668269230769 8.56305803571428  9.23076923076923 8.421875  9.23076923076923 8.25  L 9.23076923076923 2.94642857142857  C 9.23076923076923 2.77455357142857  9.17668269230769 2.63337053571428  9.06850961538462 2.52287946428572  C 8.96033653846154 2.41238839285714  8.82211538461539 2.35714285714286  8.65384615384615 2.35714285714286  L 7.5 2.35714285714286  C 7.33173076923077 2.35714285714286  7.19350961538462 2.41238839285714  7.08533653846154 2.52287946428572  C 6.97716346153846 2.63337053571428  6.92307692307692 2.77455357142857  6.92307692307692 2.94642857142857  L 6.92307692307692 8.25  C 6.92307692307692 8.421875  6.97716346153846 8.56305803571428  7.08533653846154 8.67354910714286  C 7.19350961538462 8.78404017857143  7.33173076923077 8.83928571428572  7.5 8.83928571428572  L 8.65384615384615 8.83928571428572  C 8.82211538461539 8.83928571428572  8.96033653846154 8.78404017857143  9.06850961538462 8.67354910714286  Z M 22.9146634615385 8.67354910714286  C 23.0228365384615 8.56305803571428  23.0769230769231 8.421875  23.0769230769231 8.25  L 23.0769230769231 2.94642857142857  C 23.0769230769231 2.77455357142857  23.0228365384615 2.63337053571428  22.9146634615385 2.52287946428572  C 22.8064903846154 2.41238839285714  22.6682692307692 2.35714285714286  22.5 2.35714285714286  L 21.3461538461538 2.35714285714286  C 21.1778846153846 2.35714285714286  21.0396634615385 2.41238839285714  20.9314903846154 2.52287946428572  C 20.8233173076923 2.63337053571428  20.7692307692308 2.77455357142857  20.7692307692308 2.94642857142857  L 20.7692307692308 8.25  C 20.7692307692308 8.421875  20.8233173076923 8.56305803571428  20.9314903846154 8.67354910714286  C 21.0396634615385 8.78404017857143  21.1778846153846 8.83928571428572  21.3461538461538 8.83928571428572  L 22.5 8.83928571428572  C 22.6682692307692 8.83928571428572  22.8064903846154 8.78404017857143  22.9146634615385 8.67354910714286  Z M 29.3149038461538 5.4140625  C 29.7716346153846 5.88058035714286  30 6.43303571428571  30 7.07142857142857  L 30 30.6428571428571  C 30 31.28125  29.7716346153846 31.8337053571429  29.3149038461538 32.3002232142857  C 28.8581730769231 32.7667410714286  28.3173076923077 33  27.6923076923077 33  L 2.30769230769231 33  C 1.68269230769231 33  1.14182692307692 32.7667410714286  0.685096153846154 32.3002232142857  C 0.228365384615385 31.8337053571429  0 31.28125  0 30.6428571428571  L 0 7.07142857142857  C 0 6.43303571428571  0.228365384615385 5.88058035714286  0.685096153846154 5.4140625  C 1.14182692307692 4.94754464285714  1.68269230769231 4.71428571428572  2.30769230769231 4.71428571428572  L 4.61538461538462 4.71428571428572  L 4.61538461538462 2.94642857142857  C 4.61538461538462 2.13616071428572  4.89783653846154 1.44252232142857  5.46274038461538 0.865513392857144  C 6.02764423076923 0.288504464285715  6.70673076923077 0  7.5 0  L 8.65384615384615 0  C 9.44711538461539 0  10.1262019230769 0.288504464285715  10.6911057692308 0.865513392857144  C 11.2560096153846 1.44252232142857  11.5384615384615 2.13616071428572  11.5384615384615 2.94642857142857  L 11.5384615384615 4.71428571428572  L 18.4615384615385 4.71428571428572  L 18.4615384615385 2.94642857142857  C 18.4615384615385 2.13616071428572  18.7439903846154 1.44252232142857  19.3088942307692 0.865513392857144  C 19.8737980769231 0.288504464285715  20.5528846153846 0  21.3461538461538 0  L 22.5 0  C 23.2932692307692 0  23.9723557692308 0.288504464285715  24.5372596153846 0.865513392857144  C 25.1021634615385 1.44252232142857  25.3846153846154 2.13616071428572  25.3846153846154 2.94642857142857  L 25.3846153846154 4.71428571428572  L 27.6923076923077 4.71428571428572  C 28.3173076923077 4.71428571428572  28.8581730769231 4.94754464285714  29.3149038461538 5.4140625  Z " fill-rule="nonzero" fill="#000000" stroke="none" transform="matrix(1 0 0 1 63 280 )" />
  </g>
</svg>