<?xml version="1.0" encoding="utf-8"?>
<svg version="1.1" xmlns:xlink="http://www.w3.org/1999/xlink" width="30px" height="25px" xmlns="http://www.w3.org/2000/svg">
  <g transform="matrix(1 0 0 1 -63 -356 )">
    <path d="M 25.0390859891762 13.7251420454545  C 25.2796151533373 13.8198390151515  25.3998797354179 13.9914772727273  25.3998797354179 14.2400568181818  L 25.3998797354179 19.8863636363636  C 25.3998797354179 21.2949810606061  24.8917618761275 22.4994081439394  23.8755261575466 23.4996448863636  C 22.8592904389657 24.4998816287879  21.6355983162959 25  20.204449789537 25  L 5.19542994588094 25  C 3.76428141912207 25  2.5405892964522 24.4998816287879  1.52435357787132 23.4996448863636  C 0.508117859290439 22.4994081439394  0 21.2949810606061  0 19.8863636363636  L 0 5.11363636363637  C 0 3.70501893939394  0.508117859290439 2.50059185606061  1.52435357787132 1.50035511363636  C 2.5405892964522 0.500118371212119  3.76428141912207 0  5.19542994588094 0  L 20.204449789537 0  C 20.9621166566446 0  21.665664461816 0.147964015151514  22.3150932050511 0.443892045454544  C 22.495490078172 0.526751893939392  22.6037282020445 0.662878787878787  22.6398075766687 0.852272727272727  C 22.6758869512928 1.05350378787879  22.6217678893566 1.22514204545454  22.4774503908599 1.3671875  L 21.5935057125676 2.23721590909091  C 21.4732411304871 2.35558712121212  21.3349368610944 2.41477272727273  21.1785929043897 2.41477272727273  C 21.1425135297655 2.41477272727273  21.0883944678292 2.40293560606061  21.0162357185809 2.37926136363636  C 20.7396271797956 2.30823863636364  20.4690318701143 2.27272727272727  20.204449789537 2.27272727272727  L 5.19542994588094 2.27272727272727  C 4.40168370414913 2.27272727272727  3.72218881539387 2.55089962121212  3.15694527961515 3.10724431818182  C 2.59170174383644 3.66358901515151  2.30907997594708 4.33238636363637  2.30907997594708 5.11363636363637  L 2.30907997594708 19.8863636363636  C 2.30907997594708 20.6676136363636  2.59170174383644 21.3364109848485  3.15694527961515 21.8927556818182  C 3.72218881539387 22.4491003787879  4.40168370414913 22.7272727272727  5.19542994588094 22.7272727272727  L 20.204449789537 22.7272727272727  C 20.9981960312688 22.7272727272727  21.6776909200241 22.4491003787879  22.2429344558028 21.8927556818182  C 22.8081779915815 21.3364109848485  23.0907997594708 20.6676136363636  23.0907997594708 19.8863636363636  L 23.0907997594708 15.3764204545455  C 23.0907997594708 15.2225378787879  23.1449188214071 15.0923295454545  23.2531569452796 14.9857954545455  L 24.4076969332532 13.8494318181818  C 24.5279615153337 13.7310606060606  24.6662657847264 13.671875  24.8226097414312 13.671875  C 24.8947684906795 13.671875  24.9669272399278 13.6896306818182  25.0390859891762 13.7251420454545  Z M 30 4.54545454545454  C 30 4.93607954545454  29.8556825015033 5.2734375  29.5670475045099 5.55752840909091  L 14.8827420324714 20.0106534090909  C 14.5941070354781 20.2947443181818  14.2513529765484 20.4367897727273  13.8544798556825 20.4367897727273  C 13.4576067348166 20.4367897727273  13.114852675887 20.2947443181818  12.8262176788936 20.0106534090909  L 5.06915213469633 12.3757102272727  C 4.78051713770295 12.0916193181818  4.63619963920625 11.7542613636364  4.63619963920625 11.3636363636364  C 4.63619963920625 10.9730113636364  4.78051713770295 10.6356534090909  5.06915213469633 10.3515625  L 7.05351773902586 8.3984375  C 7.34215273601924 8.11434659090909  7.68490679494889 7.97230113636363  8.08177991581479 7.97230113636363  C 8.4786530366807 7.97230113636363  8.82140709561034 8.11434659090909  9.11004209260373 8.3984375  L 13.8544798556825 13.0681818181818  L 25.5261575466025 1.58025568181818  C 25.8147925435959 1.29616477272727  26.1575466025256 1.15411931818182  26.5544197233915 1.15411931818182  C 26.9512928442574 1.15411931818182  27.294046903187 1.29616477272727  27.5826819001804 1.58025568181818  L 29.5670475045099 3.53338068181818  C 29.8556825015033 3.81747159090909  30 4.15482954545454  30 4.54545454545454  Z " fill-rule="nonzero" fill="#000000" stroke="none" transform="matrix(1 0 0 1 63 356 )" />
  </g>
</svg>