<?xml version="1.0" encoding="utf-8"?>
<svg version="1.1" xmlns:xlink="http://www.w3.org/1999/xlink" width="11px" height="13px" xmlns="http://www.w3.org/2000/svg">
  <g transform="matrix(1 0 0 1 -164 -683 )">
    <path d="M 2.8888888888888 4.03547671840352  L 2.8888888888888 5.76496674057648  L 7.51111111111118 5.76496674057648  L 7.51111111111118 4.03547671840352  C 7.51111111111118 3.39892830746498  7.28541666666661 2.85546008869176  6.83402777777769 2.40507206208429  C 6.38263888888901 1.9546840354767  5.83796296296293 1.72949002217297  5.20000000000005 1.72949002217297  C 4.56203703703716 1.72949002217297  4.01736111111109 1.9546840354767  3.56597222222217 2.40507206208429  C 3.11458333333348 2.85546008869176  2.8888888888888 3.39892830746498  2.8888888888888 4.03547671840352  Z M 10.1472222222224 6.0171840354767  C 10.3157407407408 6.18532889874359  10.4000000000001 6.38950480413894  10.4000000000001 6.62971175166308  L 10.4000000000001 11.8181818181818  C 10.4000000000001 12.0583887657058  10.3157407407408 12.2625646711012  10.1472222222224 12.430709534368  C 9.97870370370356 12.5988543976349  9.77407407407418 12.6829268292684  9.53333333333342 12.6829268292684  L 0.866666666666674 12.6829268292684  C 0.625925925925912 12.6829268292684  0.421296296296191 12.5988543976349  0.252777777777737 12.430709534368  C 0.0842592592592837 12.2625646711012  0 12.0583887657058  0 11.8181818181818  L 0 6.62971175166308  C 0 6.38950480413894  0.0842592592592837 6.18532889874359  0.252777777777737 6.0171840354767  C 0.421296296296191 5.84903917220993  0.625925925925912 5.76496674057648  0.866666666666674 5.76496674057648  L 1.15555555555557 5.76496674057648  L 1.15555555555557 4.03547671840352  C 1.15555555555557 2.93052475979312  1.55277777777781 1.98170731707307  2.34722222222217 1.18902439024396  C 3.14166666666654 0.396341463414615  4.09259259259272 0  5.20000000000005 0  C 6.30740740740737 0  7.25833333333321 0.396341463414615  8.05277777777792 1.18902439024396  C 8.84722222222229 1.98170731707307  9.24444444444441 2.93052475979312  9.24444444444441 4.03547671840352  L 9.24444444444441 5.76496674057648  L 9.53333333333342 5.76496674057648  C 9.77407407407418 5.76496674057648  9.97870370370356 5.84903917220993  10.1472222222224 6.0171840354767  Z " fill-rule="nonzero" fill="#ffffff" stroke="none" transform="matrix(1 0 0 1 164 683 )" />
  </g>
</svg>