<?xml version="1.0" encoding="utf-8"?>
<svg version="1.1" xmlns:xlink="http://www.w3.org/1999/xlink" width="18px" height="20px" xmlns="http://www.w3.org/2000/svg">
  <g transform="matrix(1 0 0 1 -360 -15 )">
    <path d="M 9 18.9160714285714  C 9.11538461538464 18.9160714285714  9.17307692307696 18.8571428571429  9.17307692307696 18.7392857142857  C 9.17307692307696 18.6214285714286  9.11538461538464 18.5625  9 18.5625  C 8.57451923076923 18.5625  8.20853365384619 18.4059709821429  7.90204326923083 18.0929129464286  C 7.59555288461542 17.7798549107143  7.44230769230768 17.4060267857143  7.44230769230768 16.9714285714286  C 7.44230769230768 16.8535714285714  7.38461538461542 16.7946428571429  7.26923076923083 16.7946428571429  C 7.15384615384619 16.7946428571429  7.09615384615381 16.8535714285714  7.09615384615381 16.9714285714286  C 7.09615384615381 17.5091517857143  7.28185096153845 17.9676897321429  7.65324519230768 18.3470424107143  C 8.02463942307696 18.7263950892857  8.47355769230768 18.9160714285714  9 18.9160714285714  Z M 17.015625 14.5848214285714  C 17.3112980769231 14.9236607142857  17.639423076923 15.2477678571429  18 15.5571428571429  C 18 15.9401785714286  17.8629807692308 16.2716517857143  17.5889423076924 16.5515625  C 17.3149038461538 16.8314732142857  16.9903846153846 16.9714285714286  16.6153846153846 16.9714285714286  L 11.7692307692308 16.9714285714286  C 11.7692307692308 17.7522321428571  11.498798076923 18.4188616071429  10.9579326923077 18.9713169642857  C 10.4170673076923 19.5237723214286  9.76442307692304 19.8  9 19.8  C 8.23557692307696 19.8  7.58293269230768 19.5237723214286  7.04206730769232 18.9713169642857  C 6.50120192307696 18.4188616071429  6.23076923076917 17.7522321428571  6.23076923076917 16.9714285714286  L 1.38461538461542 16.9714285714286  C 1.00961538461536 16.9714285714286  0.685096153846189 16.8314732142857  0.411057692307679 16.5515625  C 0.137019230769226 16.2716517857143  0 15.9401785714286  0 15.5571428571429  C 0.360576923076962 15.2477678571429  0.688701923076906 14.9236607142857  0.984375 14.5848214285714  C 1.28004807692309 14.2459821428571  1.58653846153845 13.805859375  1.90384615384619 13.264453125  C 2.22115384615381 12.723046875  2.48978365384619 12.1392857142857  2.70973557692304 11.5131696428571  C 2.9296875 10.8870535714286  3.10997596153845 10.1283482142857  3.25060096153845 9.23705357142857  C 3.39122596153845 8.34575892857143  3.46153846153845 7.38816964285714  3.46153846153845 6.36428571428571  C 3.46153846153845 5.24464285714286  3.88341346153845 4.20418526785715  4.72716346153845 3.24291294642857  C 5.57091346153845 2.281640625  6.67788461538458 1.69787946428571  8.04807692307696 1.49162946428572  C 7.99038461538464 1.35167410714286  7.96153846153845 1.20803571428571  7.96153846153845 1.06071428571429  C 7.96153846153845 0.766071428571429  8.0625 0.515624999999996  8.26442307692304 0.309375000000001  C 8.46634615384619 0.103125000000002  8.71153846153845 0  9 0  C 9.28846153846155 0  9.53365384615381 0.103125000000002  9.73557692307696 0.309375000000001  C 9.9375 0.515624999999996  10.0384615384615 0.766071428571429  10.0384615384615 1.06071428571429  C 10.0384615384615 1.20803571428571  10.0096153846154 1.35167410714286  9.95192307692304 1.49162946428572  C 11.3221153846154 1.69787946428571  12.4290865384615 2.281640625  13.2728365384615 3.24291294642857  C 14.1165865384615 4.20418526785715  14.5384615384615 5.24464285714286  14.5384615384615 6.36428571428571  C 14.5384615384615 7.38816964285714  14.6087740384615 8.34575892857143  14.7493990384615 9.23705357142857  C 14.8900240384615 10.1283482142857  15.0703125 10.8870535714286  15.290264423077 11.5131696428571  C 15.5102163461538 12.1392857142857  15.7788461538462 12.723046875  16.0961538461538 13.264453125  C 16.4134615384615 13.805859375  16.7199519230769 14.2459821428571  17.015625 14.5848214285714  Z " fill-rule="nonzero" fill="#ffffff" stroke="none" transform="matrix(1 0 0 1 360 15 )" />
  </g>
</svg>